<svg width="221" height="221" viewBox="0 0 221 221" fill="none" xmlns="http://www.w3.org/2000/svg">
<path d="M194.5 0C209.136 2.70606e-06 221 11.8645 221 26.5V194.5C221 209.136 209.136 221 194.5 221H26.5C11.8645 221 2.41598e-07 209.136 0 194.5V26.5C2.70606e-06 11.8645 11.8645 2.41598e-07 26.5 0H194.5ZM26.5 17C21.2533 17 17 21.2533 17 26.5V194.5C17 199.747 21.2533 204 26.5 204H194.5C199.747 204 204 199.747 204 194.5V26.5C204 21.2533 199.747 17 194.5 17H26.5ZM86.5938 66.0117C94.2832 64.9334 99.7479 65.8546 100.5 66.1045V82.4043C91.2109 82.4043 80.3514 82.484 73.5879 89.7354C73.16 90.1956 72.7576 90.6688 72.3945 91.1816C69.3083 95.2451 67.5834 100.861 67.1943 108.08C67.1425 109.119 67.1172 110.184 67.1172 111.275V155.5H50.5059V109.986C50.4929 109.763 50.5059 109.553 50.5059 109.329C50.5059 107.725 50.5969 106.146 50.8174 104.595C53.385 76.4141 72.2518 68.1823 86.1396 66.1045C86.2953 66.1045 86.4511 66.0649 86.5938 66.0518V66.0117ZM120.5 66.1045C121.252 65.8546 126.717 64.9334 134.406 66.0117V66.0518C134.549 66.0649 134.705 66.1045 134.86 66.1045C148.748 68.1823 167.615 76.4141 170.183 104.595C170.403 106.146 170.494 107.725 170.494 109.329C170.494 109.553 170.507 109.763 170.494 109.986V155.5H153.883V111.275C153.883 110.184 153.858 109.119 153.806 108.08C153.417 100.861 151.692 95.2451 148.605 91.1816C148.242 90.6688 147.84 90.1956 147.412 89.7354C140.649 82.484 129.789 82.4043 120.5 82.4043V66.1045Z" fill="#1A1B18"/>
</svg>
